<?xml version="1.0" encoding="utf-8"?>
<!-- Generator: Adobe Illustrator 21.0.0, SVG Export Plug-In . SVG Version: 6.00 Build 0)  -->
<svg version="1.0" id="Layer_1" xmlns="http://www.w3.org/2000/svg" xmlns:xlink="http://www.w3.org/1999/xlink" x="0px" y="0px"
	 viewBox="0 0 24 24" enable-background="new 0 0 24 24" xml:space="preserve">
<g>
	<g>
		<path fill="#FFFFFF" d="M1.9,12l0.3-0.8c1.2-0.3,3.2-1,5.1-2.8l0.1,0h1L7,11.1l2.1,0l-0.4,0.8l-2.1,0c0,0-1,1.9-1.3,3.3
			c-0.3,1.5,0,2.7,1.4,3.1c0.9,0.3,1.9,0.2,3.1-0.1c2.7-0.8,5.5-2.7,7.6-5.1c3.4-4,3.5-8.1,0.2-9.1c-2.2-0.7-5.2,0.1-8,1.7
			c3.5-2.3,7.4-3.3,10-2.5c0.5,0.2,0.9,0.4,1.3,0.6C18.7,1.5,15.5,0,12,0C5.4,0,0,5.4,0,12c0,2.4,0.7,4.7,2,6.6
			c-0.5-1.2-0.4-2.7,0.2-4.3c0,0,0,0,0,0c0,0,0-0.1,0-0.1c0,0,0-0.1,0-0.1c0,0,0,0,0-0.1c0.2-0.6,0.5-1.1,0.8-1.7
			c0-0.1,0.1-0.2,0.1-0.3L1.9,12z M22.2,5.6c0.8,2.2-0.2,5.4-3,8.7C15,19.1,8.5,22,4.5,20.8c-0.5-0.2-0.9-0.4-1.3-0.6
			C5.4,22.5,8.5,24,12,24c6.6,0,12-5.4,12-12C24,9.7,23.3,7.5,22.2,5.6z"/>
	</g>
</g>
</svg>
